<svg width="84" height="75" viewBox="0 0 84 75" fill="none" xmlns="http://www.w3.org/2000/svg">
<path d="M66.6667 50H58.3333V58.3333H66.6667M66.6667 33.3333H58.3333V41.6667H66.6667M75 66.6667H41.6667V58.3333H50V50H41.6667V41.6667H50V33.3333H41.6667V25H75M33.3333 16.6667H25V8.33333H33.3333M33.3333 33.3333H25V25H33.3333M33.3333 50H25V41.6667H33.3333M33.3333 66.6667H25V58.3333H33.3333M16.6667 16.6667H8.33333V8.33333H16.6667M16.6667 33.3333H8.33333V25H16.6667M16.6667 50H8.33333V41.6667H16.6667M16.6667 66.6667H8.33333V58.3333H16.6667M41.6667 16.6667V0H0V75H83.3333V16.6667H41.6667Z" fill="black"/>
</svg>
