<svg width="67" height="73" viewBox="0 0 67 73" fill="none" xmlns="http://www.w3.org/2000/svg">
<path d="M8.33334 64.5833H20.8333V39.5833H45.8333V64.5833H58.3333V27.0833L33.3333 8.33333L8.33334 27.0833V64.5833ZM8.33334 72.9167C6.04167 72.9167 4.07917 72.1 2.44584 70.4667C0.812507 68.8333 -0.0027707 66.8722 7.07414e-06 64.5833V27.0833C7.07414e-06 25.7639 0.29584 24.5139 0.887506 23.3333C1.47917 22.1528 2.29445 21.1806 3.33334 20.4167L28.3333 1.66667C29.0972 1.11111 29.8958 0.694444 30.7292 0.416666C31.5625 0.138888 32.4306 0 33.3333 0C34.2361 0 35.1042 0.138888 35.9375 0.416666C36.7708 0.694444 37.5695 1.11111 38.3333 1.66667L63.3333 20.4167C64.375 21.1806 65.1917 22.1528 65.7833 23.3333C66.375 24.5139 66.6694 25.7639 66.6667 27.0833V64.5833C66.6667 66.875 65.85 68.8375 64.2167 70.4708C62.5833 72.1042 60.6222 72.9194 58.3333 72.9167H37.5V47.9167H29.1667V72.9167H8.33334Z" fill="black"/>
</svg>
