<svg  viewBox="0 0 111 42" fill="none" xmlns="http://www.w3.org/2000/svg">
<g filter="url(#filter0_d_103_5)">
<path d="M19.0323 2L14.822 4.99074L14.2479 12.2315L19.0323 8.2963V2Z" fill="#939598"/>
<path d="M7.74121 10.6574L13.4824 6.40741L12.7169 13.4907L5.82747 18.6852L7.74121 10.6574Z" fill="#939598"/>
<path d="M12.7169 15.2222L5.25335 21.0463L2.57412 33.4815L11.1859 26.2407L12.7169 15.2222Z" fill="#939598"/>
<path d="M2 36L10.4204 28.4444L9.65495 36H2Z" fill="#939598"/>
<path d="M12.1428 26.2407L13.8652 14.4352L19.0323 9.87037V20.7315L12.1428 26.2407Z" fill="#939598"/>
<path d="M19.0323 22.3056L12.1428 27.6574L10.8032 36H19.0323V22.3056Z" fill="#939598"/>
<path d="M19.0323 2L22.7321 4.99074L23.2367 12.2315L19.0323 8.2963V2Z" fill="#ED9D19"/>
<path d="M28.9547 10.6574L23.9094 6.40741L24.5821 13.4907L30.6365 18.6852L28.9547 10.6574Z" fill="#ED9D19"/>
<path d="M24.5821 15.2222L31.141 21.0463L33.4955 33.4815L25.9275 26.2407L24.5821 15.2222Z" fill="#ED9D19"/>
<path d="M34 36L26.6002 28.4444L27.2729 36H34Z" fill="#ED9D19"/>
<path d="M25.0866 26.2407L23.573 14.4352L19.0323 9.87037V20.7315L25.0866 26.2407Z" fill="#ED9D19"/>
<path d="M19.0323 22.3056L25.0866 27.6574L26.2639 36H19.0323V22.3056Z" fill="#ED9D19"/>
</g>
<path d="M42.2032 36H41.7345L44.3588 28.7273H44.8701L47.4944 36H47.0257L44.6322 29.299H44.5967L42.2032 36ZM42.8673 33.2621H46.3616V33.674H42.8673V33.2621ZM50.6656 38.1591C50.327 38.1591 50.0228 38.1141 49.7529 38.0241C49.483 37.9366 49.2534 37.8111 49.064 37.6477C48.877 37.4844 48.7338 37.2902 48.6343 37.0653L48.9965 36.8523C49.077 37.0275 49.1919 37.1837 49.341 37.321C49.4901 37.4583 49.6748 37.5661 49.895 37.6442C50.1175 37.7223 50.3744 37.7614 50.6656 37.7614C51.1911 37.7614 51.6066 37.6252 51.912 37.353C52.2198 37.0831 52.3737 36.6688 52.3737 36.1101V34.7536H52.3311C52.2482 34.9903 52.1251 35.201 51.9617 35.3857C51.8008 35.5679 51.6031 35.7112 51.3687 35.8153C51.1343 35.9195 50.868 35.9716 50.5697 35.9716C50.1388 35.9716 49.76 35.8603 49.4333 35.6378C49.1066 35.4152 48.8521 35.1027 48.6698 34.7003C48.4875 34.2955 48.3964 33.8196 48.3964 33.2727C48.3964 32.7259 48.4852 32.2417 48.6627 31.8203C48.8427 31.3965 49.096 31.0651 49.4227 30.826C49.7494 30.5845 50.1329 30.4638 50.5732 30.4638C50.8881 30.4638 51.1604 30.5241 51.39 30.6449C51.622 30.7633 51.8161 30.9207 51.9724 31.1172C52.1286 31.3137 52.2494 31.5291 52.3346 31.7635H52.3843V30.5455H52.8034V36.1278C52.8034 36.5824 52.7134 36.96 52.5335 37.2607C52.3559 37.5613 52.1061 37.7862 51.7842 37.9354C51.4646 38.0845 51.0917 38.1591 50.6656 38.1591ZM50.6088 35.5703C50.9733 35.5703 51.287 35.478 51.5498 35.2933C51.815 35.1063 52.0186 34.8411 52.1606 34.4979C52.305 34.1522 52.3772 33.7427 52.3772 33.2692C52.3772 32.8099 52.3074 32.3991 52.1677 32.0369C52.028 31.6747 51.8256 31.3894 51.5605 31.1811C51.2953 30.9728 50.9781 30.8686 50.6088 30.8686C50.2323 30.8686 49.9115 30.9751 49.6464 31.1882C49.3812 31.3989 49.1776 31.6854 49.0356 32.0476C48.8959 32.4098 48.8261 32.817 48.8261 33.2692C48.8261 33.7237 48.8971 34.1238 49.0392 34.4695C49.1812 34.8127 49.3848 35.0826 49.6499 35.2791C49.9151 35.4732 50.2347 35.5703 50.6088 35.5703ZM56.7531 36.1136C56.2607 36.1136 55.8322 35.9917 55.4676 35.7479C55.103 35.504 54.8213 35.1702 54.6224 34.7464C54.4236 34.3227 54.3241 33.8397 54.3241 33.2976C54.3241 32.7531 54.4236 32.2678 54.6224 31.8416C54.8237 31.4155 55.0995 31.0793 55.4498 30.8331C55.8002 30.5869 56.2003 30.4638 56.6501 30.4638C56.9555 30.4638 57.2443 30.5253 57.5166 30.6484C57.7912 30.7692 58.0327 30.9444 58.241 31.174C58.4517 31.4036 58.6163 31.6806 58.7346 32.005C58.8554 32.3293 58.9157 32.6939 58.9157 33.0987V33.3686H54.5976V32.9744H58.4825C58.4825 32.5791 58.402 32.2228 58.241 31.9055C58.08 31.5883 57.8611 31.3362 57.5841 31.1491C57.3071 30.9621 56.9958 30.8686 56.6501 30.8686C56.2879 30.8686 55.9648 30.9704 55.6807 31.174C55.3989 31.3752 55.1752 31.6475 55.0095 31.9908C54.8461 32.334 54.7609 32.7176 54.7538 33.1413V33.3189C54.7538 33.7734 54.8331 34.1818 54.9917 34.544C55.1527 34.9039 55.3824 35.1892 55.6807 35.3999C55.979 35.6082 56.3364 35.7124 56.7531 35.7124C57.0514 35.7124 57.3059 35.6626 57.5166 35.5632C57.7297 35.4614 57.9037 35.3383 58.0386 35.1939C58.1736 35.0495 58.2754 34.9098 58.344 34.7749L58.7382 34.9347C58.6553 35.117 58.5263 35.2992 58.3511 35.4815C58.1783 35.6615 57.9581 35.8118 57.6906 35.9325C57.4255 36.0533 57.113 36.1136 56.7531 36.1136ZM60.8405 32.4631V36H60.4072V30.5455H60.8298V31.4084H60.8724C61.0003 31.1267 61.205 30.9006 61.4868 30.7301C61.7685 30.5597 62.1035 30.4744 62.4917 30.4744C62.8587 30.4744 63.1807 30.5526 63.4577 30.7088C63.737 30.8651 63.9548 31.0876 64.1111 31.3764C64.2697 31.6629 64.349 32.005 64.349 32.4027V36H63.9157V32.4205C63.9157 31.9564 63.7773 31.5836 63.5003 31.3018C63.2256 31.0178 62.8622 30.8757 62.4101 30.8757C62.107 30.8757 61.8372 30.942 61.6004 31.0746C61.3637 31.2071 61.1778 31.393 61.0429 31.6321C60.9079 31.8688 60.8405 32.1458 60.8405 32.4631ZM68.1949 36.1136C67.7309 36.1136 67.3225 35.9917 66.9697 35.7479C66.617 35.5017 66.3412 35.1655 66.1423 34.7393C65.9458 34.3132 65.8476 33.8303 65.8476 33.2905C65.8476 32.7507 65.947 32.2678 66.1459 31.8416C66.3447 31.4155 66.6205 31.0793 66.9733 30.8331C67.326 30.5869 67.732 30.4638 68.1913 30.4638C68.537 30.4638 68.8518 30.5348 69.1359 30.6768C69.4224 30.8189 69.6591 31.0166 69.8461 31.2699C70.0355 31.5232 70.1563 31.8168 70.2084 32.1506H69.768C69.697 31.7812 69.5194 31.4759 69.2354 31.2344C68.9536 30.9905 68.6068 30.8686 68.1949 30.8686C67.8256 30.8686 67.4965 30.9728 67.2077 31.1811C66.9188 31.3871 66.6916 31.6723 66.5258 32.0369C66.3601 32.3991 66.2773 32.8146 66.2773 33.2834C66.2773 33.745 66.3577 34.1593 66.5187 34.5263C66.6797 34.8909 66.9046 35.1797 67.1934 35.3928C67.4823 35.6058 67.8161 35.7124 68.1949 35.7124C68.4624 35.7124 68.7062 35.6591 68.9264 35.5526C69.1489 35.446 69.3348 35.2945 69.4839 35.098C69.6331 34.9015 69.7313 34.6719 69.7787 34.4091H70.219C70.1669 34.7453 70.0486 35.0412 69.8639 35.2969C69.6792 35.5526 69.4437 35.7526 69.1572 35.897C68.8708 36.0414 68.55 36.1136 68.1949 36.1136ZM73.8234 36.1136C73.331 36.1136 72.9025 35.9917 72.5379 35.7479C72.1733 35.504 71.8916 35.1702 71.6927 34.7464C71.4939 34.3227 71.3944 33.8397 71.3944 33.2976C71.3944 32.7531 71.4939 32.2678 71.6927 31.8416C71.894 31.4155 72.1698 31.0793 72.5202 30.8331C72.8705 30.5869 73.2706 30.4638 73.7204 30.4638C74.0258 30.4638 74.3147 30.5253 74.5869 30.6484C74.8615 30.7692 75.103 30.9444 75.3113 31.174C75.522 31.4036 75.6866 31.6806 75.805 32.005C75.9257 32.3293 75.9861 32.6939 75.9861 33.0987V33.3686H71.6679V32.9744H75.5528C75.5528 32.5791 75.4723 32.2228 75.3113 31.9055C75.1504 31.5883 74.9314 31.3362 74.6544 31.1491C74.3774 30.9621 74.0661 30.8686 73.7204 30.8686C73.3582 30.8686 73.0351 30.9704 72.751 31.174C72.4693 31.3752 72.2455 31.6475 72.0798 31.9908C71.9165 32.334 71.8312 32.7176 71.8241 33.1413V33.3189C71.8241 33.7734 71.9034 34.1818 72.0621 34.544C72.223 34.9039 72.4527 35.1892 72.751 35.3999C73.0493 35.6082 73.4068 35.7124 73.8234 35.7124C74.1217 35.7124 74.3762 35.6626 74.5869 35.5632C74.8 35.4614 74.974 35.3383 75.1089 35.1939C75.2439 35.0495 75.3457 34.9098 75.4143 34.7749L75.8085 34.9347C75.7256 35.117 75.5966 35.2992 75.4214 35.4815C75.2486 35.6615 75.0284 35.8118 74.7609 35.9325C74.4958 36.0533 74.1833 36.1136 73.8234 36.1136ZM84.3632 30.5455C84.3253 30.0933 84.1407 29.7275 83.8092 29.4482C83.4801 29.1688 83.054 29.0291 82.5308 29.0291C82.1781 29.0291 81.8644 29.0942 81.5898 29.2244C81.3151 29.3546 81.0997 29.5322 80.9434 29.7571C80.7872 29.982 80.7091 30.2401 80.7091 30.5312C80.7091 30.7183 80.7446 30.8875 80.8156 31.0391C80.889 31.1882 80.992 31.322 81.1246 31.4403C81.2571 31.5563 81.4146 31.6581 81.5969 31.7457C81.7791 31.8333 81.9804 31.9103 82.2006 31.9766L82.996 32.2109C83.2683 32.2938 83.5192 32.3897 83.7488 32.4986C83.9809 32.6075 84.1821 32.7377 84.3525 32.8892C84.5254 33.0384 84.6591 33.2135 84.7538 33.4148C84.8509 33.616 84.8994 33.848 84.8994 34.1108C84.8994 34.4943 84.8 34.8376 84.6011 35.1406C84.4046 35.4437 84.1241 35.6828 83.7595 35.858C83.3973 36.0308 82.97 36.1172 82.4775 36.1172C82.0088 36.1172 81.6004 36.0379 81.2524 35.8793C80.9068 35.7206 80.6333 35.5005 80.4321 35.2188C80.2309 34.9347 80.1172 34.608 80.0912 34.2386H80.5457C80.5694 34.5393 80.6653 34.7997 80.8334 35.0199C81.0038 35.2377 81.2299 35.4058 81.5116 35.5241C81.7934 35.6425 82.1153 35.7017 82.4775 35.7017C82.8682 35.7017 83.2126 35.6354 83.5109 35.5028C83.8092 35.3679 84.0424 35.1809 84.2105 34.9418C84.3786 34.7027 84.4626 34.4245 84.4626 34.1072C84.4626 33.8516 84.4023 33.6326 84.2815 33.4503C84.1608 33.268 83.982 33.1106 83.7453 32.978C83.5109 32.8454 83.2197 32.727 82.8717 32.6229L82.023 32.3672C81.4548 32.1944 81.0204 31.9588 80.7197 31.6605C80.4214 31.3622 80.2723 30.9905 80.2723 30.5455C80.2723 30.1714 80.3717 29.84 80.5706 29.5511C80.7694 29.2599 81.0393 29.0315 81.3802 28.8658C81.7235 28.7 82.1106 28.6172 82.5415 28.6172C82.9747 28.6172 83.357 28.7012 83.6885 28.8693C84.0199 29.035 84.2827 29.2635 84.4768 29.5547C84.671 29.8435 84.7787 30.1738 84.8 30.5455H84.3632ZM86.6537 36V28.7273H87.0834V31.7635H87.126C87.2112 31.5291 87.3319 31.3137 87.4882 31.1172C87.6444 30.9207 87.8386 30.7633 88.0706 30.6449C88.3026 30.5241 88.5737 30.4638 88.8838 30.4638C89.3218 30.4638 89.7041 30.5857 90.0308 30.8295C90.3575 31.071 90.6108 31.4048 90.7907 31.831C90.9707 32.2547 91.0606 32.7401 91.0606 33.2869C91.0606 33.8385 90.9707 34.3274 90.7907 34.7536C90.6108 35.1773 90.3587 35.5099 90.0344 35.7514C89.71 35.9929 89.3277 36.1136 88.8873 36.1136C88.5772 36.1136 88.3061 36.0545 88.0741 35.9361C87.8421 35.8153 87.648 35.6567 87.4917 35.4602C87.3355 35.2614 87.2136 35.0447 87.126 34.8104H87.0763V36H86.6537ZM87.0798 33.2834C87.0798 33.7474 87.1497 34.1629 87.2893 34.5298C87.4314 34.8944 87.635 35.1832 87.9001 35.3963C88.1653 35.607 88.4825 35.7124 88.8518 35.7124C89.2259 35.7124 89.5455 35.6058 89.8106 35.3928C90.0758 35.1773 90.2782 34.8861 90.4179 34.5192C90.5599 34.1522 90.6309 33.7403 90.6309 33.2834C90.6309 32.8265 90.5599 32.4157 90.4179 32.0511C90.2782 31.6866 90.0758 31.3989 89.8106 31.1882C89.5455 30.9751 89.2259 30.8686 88.8518 30.8686C88.4825 30.8686 88.1653 30.974 87.9001 31.1847C87.635 31.393 87.4314 31.6795 87.2893 32.044C87.1497 32.4062 87.0798 32.8194 87.0798 33.2834ZM94.001 36.1172C93.6861 36.1172 93.3973 36.0545 93.1345 35.929C92.8741 35.8035 92.6646 35.62 92.5059 35.3786C92.3497 35.1371 92.2716 34.8435 92.2716 34.4979C92.2716 34.2706 92.3118 34.0705 92.3923 33.8977C92.4728 33.7249 92.5971 33.5758 92.7652 33.4503C92.9333 33.3248 93.1487 33.2218 93.4115 33.1413C93.6743 33.0585 93.988 32.9946 94.3525 32.9496C94.6295 32.9164 94.8769 32.8845 95.0947 32.8537C95.3125 32.8205 95.483 32.7696 95.6061 32.701C95.7316 32.6323 95.7943 32.5282 95.7943 32.3885V32.1612C95.7943 31.7635 95.6688 31.4474 95.4179 31.2131C95.1669 30.9787 94.8213 30.8615 94.3809 30.8615C93.9903 30.8615 93.6613 30.9479 93.3937 31.1207C93.1286 31.2912 92.9427 31.5114 92.8362 31.7812L92.4278 31.6286C92.532 31.3681 92.6823 31.1515 92.8788 30.9787C93.0777 30.8059 93.305 30.6768 93.5606 30.5916C93.8187 30.5064 94.0886 30.4638 94.3703 30.4638C94.6141 30.4638 94.8461 30.4981 95.0663 30.5668C95.2889 30.6354 95.4865 30.7396 95.6594 30.8793C95.8345 31.0189 95.973 31.1977 96.0748 31.4155C96.1766 31.6309 96.2275 31.889 96.2275 32.1896V36H95.7943V35.0163H95.7623C95.6676 35.2199 95.5374 35.4058 95.3717 35.5739C95.2084 35.7396 95.0107 35.8722 94.7787 35.9716C94.549 36.0687 94.2898 36.1172 94.001 36.1172ZM94.0436 35.7159C94.3845 35.7159 94.6863 35.633 94.9491 35.4673C95.2143 35.2992 95.4214 35.0696 95.5706 34.7784C95.7197 34.4872 95.7943 34.157 95.7943 33.7876V32.9851C95.7398 33.0324 95.6605 33.075 95.5564 33.1129C95.4546 33.1484 95.3386 33.1804 95.2084 33.2088C95.0805 33.2348 94.9456 33.2585 94.8035 33.2798C94.6639 33.2988 94.5277 33.3165 94.3952 33.3331C93.9974 33.3804 93.6731 33.4538 93.4221 33.5533C93.1736 33.6503 92.9913 33.7782 92.8753 33.9368C92.7616 34.0954 92.7048 34.2872 92.7048 34.5121C92.7048 34.8838 92.8327 35.1773 93.0883 35.3928C93.344 35.6082 93.6624 35.7159 94.0436 35.7159Z" fill="black"/>
<path d="M49.496 21L43.24 21.144L42.488 10.6L49.544 10.376L49.496 11.448L46.12 11.848L45.704 15.16L49.112 15.128L49.192 16.568L45.576 16.296L45.144 19.864L49.56 19.352L49.496 21ZM52.6235 21.24L51.8075 10.072L55.2315 9.544L54.2075 21.096L52.6235 21.24ZM64.6798 22.568L56.9838 23L57.2078 21.24H64.9038L64.6798 22.568ZM66.3309 13.96C66.3309 12.456 67.1309 11.0693 68.7309 9.8L71.6589 11.752C70.3362 12.584 69.6749 13.464 69.6749 14.392C69.6749 14.7867 69.8082 15.2027 70.0749 15.64C70.3415 16.0773 70.6082 16.5093 70.8749 16.936C71.1522 17.3627 71.2909 17.7627 71.2909 18.136C71.2909 19.6827 70.2242 20.8773 68.0909 21.72L67.3229 20.68C67.8455 20.392 68.2082 20.1147 68.4109 19.848C68.6135 19.5813 68.7149 19.288 68.7149 18.968C68.7149 18.648 68.5869 18.2907 68.3309 17.896C68.0855 17.4907 67.8135 17.1227 67.5149 16.792C67.2269 16.4613 66.9549 16.04 66.6989 15.528C66.4535 15.016 66.3309 14.4933 66.3309 13.96ZM74.5975 21.368C74.4162 21.368 74.2828 21.3627 74.1975 21.352C73.8348 21.1067 73.5415 20.744 73.3175 20.264C73.1042 19.7733 72.9975 19.2667 72.9975 18.744C72.9975 18.0613 73.2535 17.5653 73.7655 17.256C74.2882 16.9467 75.2428 16.792 76.6295 16.792C77.1415 16.792 77.6748 16.8293 78.2295 16.904L78.1975 16.552C78.1548 16.1253 77.9522 15.7893 77.5895 15.544C77.2268 15.288 76.7628 15.16 76.1975 15.16C75.6322 15.16 75.0668 15.336 74.5015 15.688L73.7975 13.368C74.7148 12.9947 75.7602 12.808 76.9335 12.808C78.1068 12.808 79.0348 13.0747 79.7175 13.608C80.4002 14.1307 80.7415 14.952 80.7415 16.072C80.7415 16.328 80.7308 16.5307 80.7095 16.68L80.2615 21.096L78.6775 21.24L78.4375 18.92H78.3095C77.9468 19.688 77.4455 20.2907 76.8055 20.728C76.1655 21.1547 75.4295 21.368 74.5975 21.368ZM78.2935 17.576L77.4455 17.56C76.7415 17.56 76.1655 17.5973 75.7175 17.672C75.5682 17.9707 75.4935 18.2373 75.4935 18.472C75.4935 18.7067 75.5255 18.9307 75.5895 19.144C75.6535 19.3573 75.7228 19.5013 75.7975 19.576C77.0775 19.3733 77.9095 18.7067 78.2935 17.576ZM83.8788 21.368C83.6974 21.368 83.5641 21.3627 83.4788 21.352C83.1161 21.1067 82.8228 20.744 82.5988 20.264C82.3854 19.7733 82.2788 19.2667 82.2788 18.744C82.2788 18.0613 82.5348 17.5653 83.0468 17.256C83.5694 16.9467 84.5241 16.792 85.9108 16.792C86.4228 16.792 86.9561 16.8293 87.5108 16.904L87.4788 16.552C87.4361 16.1253 87.2334 15.7893 86.8708 15.544C86.5081 15.288 86.0441 15.16 85.4788 15.16C84.9134 15.16 84.3481 15.336 83.7828 15.688L83.0788 13.368C83.9961 12.9947 85.0414 12.808 86.2148 12.808C87.3881 12.808 88.3161 13.0747 88.9988 13.608C89.6814 14.1307 90.0228 14.952 90.0228 16.072C90.0228 16.328 90.0121 16.5307 89.9908 16.68L89.5428 21.096L87.9588 21.24L87.7188 18.92H87.5908C87.2281 19.688 86.7268 20.2907 86.0868 20.728C85.4468 21.1547 84.7108 21.368 83.8788 21.368ZM87.5748 17.576L86.7268 17.56C86.0228 17.56 85.4468 17.5973 84.9988 17.672C84.8494 17.9707 84.7748 18.2373 84.7748 18.472C84.7748 18.7067 84.8068 18.9307 84.8708 19.144C84.9348 19.3573 85.0041 19.5013 85.0788 19.576C86.3588 19.3733 87.1908 18.7067 87.5748 17.576ZM92.568 10.92C94.136 10.4187 95.6187 10.168 97.016 10.168C98.424 10.168 99.5707 10.3813 100.456 10.808C100.808 11.672 100.984 12.5733 100.984 13.512C100.984 14.7813 100.675 15.992 100.056 17.144C99.448 18.296 98.5573 19.256 97.384 20.024C96.2213 20.7813 94.92 21.1813 93.48 21.224L92.568 10.92ZM98.136 14.6C98.136 13.8213 98.0187 13.128 97.784 12.52C97.56 11.912 97.2347 11.4853 96.808 11.24C96.616 11.24 96.3813 11.2773 96.104 11.352L95.224 19.88C96.184 19.4853 96.9093 18.7973 97.4 17.816C97.8907 16.824 98.136 15.752 98.136 14.6ZM103.629 21.368C103.447 21.368 103.314 21.3627 103.229 21.352C102.866 21.1067 102.573 20.744 102.349 20.264C102.135 19.7733 102.029 19.2667 102.029 18.744C102.029 18.0613 102.285 17.5653 102.797 17.256C103.319 16.9467 104.274 16.792 105.661 16.792C106.173 16.792 106.706 16.8293 107.261 16.904L107.229 16.552C107.186 16.1253 106.983 15.7893 106.621 15.544C106.258 15.288 105.794 15.16 105.229 15.16C104.663 15.16 104.098 15.336 103.533 15.688L102.829 13.368C103.746 12.9947 104.791 12.808 105.965 12.808C107.138 12.808 108.066 13.0747 108.749 13.608C109.431 14.1307 109.773 14.952 109.773 16.072C109.773 16.328 109.762 16.5307 109.741 16.68L109.293 21.096L107.709 21.24L107.469 18.92H107.341C106.978 19.688 106.477 20.2907 105.837 20.728C105.197 21.1547 104.461 21.368 103.629 21.368ZM107.325 17.576L106.477 17.56C105.773 17.56 105.197 17.5973 104.749 17.672C104.599 17.9707 104.525 18.2373 104.525 18.472C104.525 18.7067 104.557 18.9307 104.621 19.144C104.685 19.3573 104.754 19.5013 104.829 19.576C106.109 19.3733 106.941 18.7067 107.325 17.576Z" fill="black"/>
<defs>
<filter id="filter0_d_103_5" x="0" y="0" width="40" height="42" filterUnits="userSpaceOnUse" color-interpolation-filters="sRGB">
<feFlood flood-opacity="0" result="BackgroundImageFix"/>
<feColorMatrix in="SourceAlpha" type="matrix" values="0 0 0 0 0 0 0 0 0 0 0 0 0 0 0 0 0 0 127 0" result="hardAlpha"/>
<feOffset dx="2" dy="2"/>
<feGaussianBlur stdDeviation="2"/>
<feComposite in2="hardAlpha" operator="out"/>
<feColorMatrix type="matrix" values="0 0 0 0 0 0 0 0 0 0 0 0 0 0 0 0 0 0 0.25 0"/>
<feBlend mode="normal" in2="BackgroundImageFix" result="effect1_dropShadow_103_5"/>
<feBlend mode="normal" in="SourceGraphic" in2="effect1_dropShadow_103_5" result="shape"/>
</filter>
</defs>
</svg>
